<svg width="422" height="250" viewBox="0 0 422 250" fill="none" xmlns="http://www.w3.org/2000/svg">
<g filter="url(#filter0_ddddd_1041_15)">
<rect x="54.9991" y="49.1367" width="300.104" height="126.954" rx="12" transform="rotate(-4 54.9991 49.1367)" fill="white" shape-rendering="crispEdges"/>
<rect x="55.5327" y="49.6006" width="299.104" height="125.954" rx="11.5" transform="rotate(-4 55.5327 49.6006)" stroke="#E6E6E6" shape-rendering="crispEdges"/>
<rect x="72.6552" y="62.6014" width="20.0053" height="20.0153" rx="8" transform="rotate(-4 72.6552 62.6014)" fill="#62AEF0"/>
<g clip-path="url(#clip0_1041_15)">
<g clip-path="url(#clip1_1041_15)">
<path d="M86.478 75.2816L85.2938 71.2529L86.918 69.3845C87.6141 68.5837 87.7938 67.5684 87.5094 67.0868C86.993 66.8723 86.0126 67.1915 85.3165 67.9923L83.6923 69.8607L79.538 69.2487C79.2851 69.2163 79.0924 69.33 79.0066 69.5366L78.8744 69.7965C78.792 70.053 78.8594 70.299 79.0694 70.4347L81.836 71.9961L80.9428 73.5628L79.4459 73.6674L78.9818 74.2013L80.5485 75.0945L81.6511 76.5216L82.1151 75.9878L82.0104 74.4909L83.4375 73.3883L85.3688 75.9107C85.5324 76.0998 85.7854 76.1322 86.0279 76.015L86.2704 75.8978C86.4595 75.7341 86.5454 75.5276 86.478 75.2816Z" stroke="white" stroke-width="0.899958" stroke-linecap="round" stroke-linejoin="round"/>
</g>
</g>
<mask id="path-5-inside-1_1041_15" fill="white">
<path d="M77.4969 131.855L343.609 113.247L343.702 114.577L77.5899 133.186L77.4969 131.855Z"/>
</mask>
<path d="M343.609 113.247L343.563 112.582L342.056 112.687L342.103 113.352L342.149 114.018L343.656 113.912L343.609 113.247ZM340.094 113.493L340.048 112.828L337.035 113.038L337.082 113.703L337.128 114.369L340.141 114.158L340.094 113.493ZM335.073 113.844L335.027 113.179L332.014 113.389L332.061 114.055L332.107 114.72L335.12 114.509L335.073 113.844ZM330.052 114.195L330.006 113.53L326.993 113.74L327.04 114.406L327.086 115.071L330.099 114.86L330.052 114.195ZM325.031 114.546L324.985 113.881L321.972 114.091L322.019 114.757L322.065 115.422L325.078 115.211L325.031 114.546ZM320.01 114.897L319.964 114.232L316.951 114.443L316.998 115.108L317.044 115.773L320.057 115.562L320.01 114.897ZM314.99 115.248L314.943 114.583L311.93 114.794L311.977 115.459L312.023 116.124L315.036 115.914L314.99 115.248ZM309.969 115.599L309.922 114.934L306.909 115.145L306.956 115.81L307.002 116.475L310.015 116.265L309.969 115.599ZM304.948 115.951L304.901 115.285L301.888 115.496L301.935 116.161L301.981 116.826L304.994 116.616L304.948 115.951ZM299.927 116.302L299.88 115.636L296.867 115.847L296.914 116.512L296.96 117.178L299.973 116.967L299.927 116.302ZM294.906 116.653L294.859 115.987L291.846 116.198L291.893 116.863L291.939 117.529L294.952 117.318L294.906 116.653ZM289.885 117.004L289.838 116.339L286.825 116.549L286.872 117.214L286.919 117.88L289.931 117.669L289.885 117.004ZM284.864 117.355L284.817 116.69L281.804 116.9L281.851 117.566L281.898 118.231L284.91 118.02L284.864 117.355ZM279.843 117.706L279.796 117.041L276.783 117.251L276.83 117.917L276.877 118.582L279.889 118.371L279.843 117.706ZM274.822 118.057L274.775 117.392L271.763 117.603L271.809 118.268L271.856 118.933L274.868 118.722L274.822 118.057ZM269.801 118.408L269.754 117.743L266.742 117.954L266.788 118.619L266.835 119.284L269.847 119.073L269.801 118.408ZM264.78 118.759L264.733 118.094L261.721 118.305L261.767 118.97L261.814 119.635L264.826 119.425L264.78 118.759ZM259.759 119.11L259.712 118.445L256.7 118.656L256.746 119.321L256.793 119.986L259.805 119.776L259.759 119.11ZM254.738 119.462L254.691 118.796L251.679 119.007L251.725 119.672L251.772 120.337L254.784 120.127L254.738 119.462ZM249.717 119.813L249.67 119.147L246.658 119.358L246.704 120.023L246.751 120.689L249.763 120.478L249.717 119.813ZM244.696 120.164L244.649 119.498L241.637 119.709L241.683 120.374L241.73 121.04L244.742 120.829L244.696 120.164ZM239.675 120.515L239.628 119.85L236.616 120.06L236.662 120.725L236.709 121.391L239.721 121.18L239.675 120.515ZM234.654 120.866L234.607 120.201L231.595 120.411L231.641 121.077L231.688 121.742L234.7 121.531L234.654 120.866ZM229.633 121.217L229.586 120.552L226.574 120.762L226.62 121.428L226.667 122.093L229.679 121.882L229.633 121.217ZM224.612 121.568L224.565 120.903L221.553 121.114L221.599 121.779L221.646 122.444L224.658 122.233L224.612 121.568ZM219.591 121.919L219.544 121.254L216.532 121.465L216.578 122.13L216.625 122.795L219.637 122.584L219.591 121.919ZM214.57 122.27L214.523 121.605L211.511 121.816L211.557 122.481L211.604 123.146L214.616 122.936L214.57 122.27ZM209.549 122.621L209.502 121.956L206.49 122.167L206.536 122.832L206.583 123.497L209.595 123.287L209.549 122.621ZM204.528 122.973L204.481 122.307L201.469 122.518L201.515 123.183L201.562 123.848L204.574 123.638L204.528 122.973ZM199.507 123.324L199.46 122.658L196.448 122.869L196.494 123.534L196.541 124.2L199.553 123.989L199.507 123.324ZM194.486 123.675L194.439 123.009L191.427 123.22L191.473 123.885L191.52 124.551L194.532 124.34L194.486 123.675ZM189.465 124.026L189.418 123.361L186.406 123.571L186.452 124.237L186.499 124.902L189.511 124.691L189.465 124.026ZM184.444 124.377L184.397 123.712L181.385 123.922L181.431 124.588L181.478 125.253L184.49 125.042L184.444 124.377ZM179.423 124.728L179.376 124.063L176.364 124.273L176.41 124.939L176.457 125.604L179.469 125.393L179.423 124.728ZM174.402 125.079L174.355 124.414L171.343 124.625L171.389 125.29L171.436 125.955L174.448 125.744L174.402 125.079ZM169.381 125.43L169.334 124.765L166.322 124.976L166.368 125.641L166.415 126.306L169.427 126.096L169.381 125.43ZM164.36 125.781L164.313 125.116L161.301 125.327L161.347 125.992L161.394 126.657L164.406 126.447L164.36 125.781ZM159.339 126.132L159.292 125.467L156.28 125.678L156.326 126.343L156.373 127.008L159.385 126.798L159.339 126.132ZM154.318 126.484L154.271 125.818L151.259 126.029L151.305 126.694L151.352 127.359L154.364 127.149L154.318 126.484ZM149.297 126.835L149.25 126.169L146.238 126.38L146.284 127.045L146.331 127.711L149.343 127.5L149.297 126.835ZM144.276 127.186L144.229 126.52L141.217 126.731L141.263 127.396L141.31 128.062L144.322 127.851L144.276 127.186ZM139.255 127.537L139.208 126.872L136.196 127.082L136.242 127.748L136.289 128.413L139.301 128.202L139.255 127.537ZM134.234 127.888L134.187 127.223L131.175 127.433L131.221 128.099L131.268 128.764L134.28 128.553L134.234 127.888ZM129.213 128.239L129.166 127.574L126.154 127.784L126.2 128.45L126.247 129.115L129.259 128.904L129.213 128.239ZM124.192 128.59L124.145 127.925L121.133 128.136L121.179 128.801L121.226 129.466L124.238 129.255L124.192 128.59ZM119.171 128.941L119.124 128.276L116.112 128.487L116.158 129.152L116.205 129.817L119.217 129.607L119.171 128.941ZM114.15 129.292L114.103 128.627L111.091 128.838L111.137 129.503L111.184 130.168L114.196 129.958L114.15 129.292ZM109.129 129.643L109.082 128.978L106.07 129.189L106.116 129.854L106.163 130.519L109.175 130.309L109.129 129.643ZM104.108 129.995L104.061 129.329L101.049 129.54L101.095 130.205L101.142 130.871L104.154 130.66L104.108 129.995ZM99.087 130.346L99.0404 129.68L96.0278 129.891L96.0744 130.556L96.1209 131.222L99.1335 131.011L99.087 130.346ZM94.066 130.697L94.0194 130.032L91.0068 130.242L91.0534 130.907L91.0999 131.573L94.1125 131.362L94.066 130.697ZM89.045 131.048L88.9984 130.383L85.9859 130.593L86.0324 131.259L86.0789 131.924L89.0915 131.713L89.045 131.048ZM84.024 131.399L83.9775 130.734L80.9649 130.944L81.0114 131.61L81.0579 132.275L84.0705 132.064L84.024 131.399ZM79.003 131.75L78.9565 131.085L77.4504 131.19L77.4969 131.855L77.5434 132.521L79.0495 132.415L79.003 131.75ZM343.609 113.247L343.516 111.916L342.01 112.022L342.103 113.352L342.196 114.683L343.702 114.578L343.609 113.247ZM340.094 113.493L340.001 112.162L336.989 112.373L337.082 113.703L337.175 115.034L340.187 114.823L340.094 113.493ZM335.073 113.844L334.98 112.513L331.968 112.724L332.061 114.055L332.154 115.385L335.166 115.174L335.073 113.844ZM330.052 114.195L329.959 112.864L326.947 113.075L327.04 114.406L327.133 115.736L330.146 115.526L330.052 114.195ZM325.031 114.546L324.938 113.216L321.926 113.426L322.019 114.757L322.112 116.087L325.125 115.877L325.031 114.546ZM320.01 114.897L319.917 113.567L316.905 113.777L316.998 115.108L317.091 116.438L320.104 116.228L320.01 114.897ZM314.99 115.248L314.896 113.918L311.884 114.128L311.977 115.459L312.07 116.79L315.083 116.579L314.99 115.248ZM309.969 115.599L309.875 114.269L306.863 114.48L306.956 115.81L307.049 117.141L310.062 116.93L309.969 115.599ZM304.948 115.951L304.854 114.62L301.842 114.831L301.935 116.161L302.028 117.492L305.041 117.281L304.948 115.951ZM299.927 116.302L299.834 114.971L296.821 115.182L296.914 116.512L297.007 117.843L300.02 117.632L299.927 116.302ZM294.906 116.653L294.813 115.322L291.8 115.533L291.893 116.863L291.986 118.194L294.999 117.983L294.906 116.653ZM289.885 117.004L289.792 115.673L286.779 115.884L286.872 117.214L286.965 118.545L289.978 118.334L289.885 117.004ZM284.864 117.355L284.771 116.024L281.758 116.235L281.851 117.566L281.944 118.896L284.957 118.685L284.864 117.355ZM279.843 117.706L279.75 116.375L276.737 116.586L276.83 117.917L276.923 119.247L279.936 119.037L279.843 117.706ZM274.822 118.057L274.729 116.727L271.716 116.937L271.809 118.268L271.902 119.598L274.915 119.388L274.822 118.057ZM269.801 118.408L269.708 117.078L266.695 117.288L266.788 118.619L266.881 119.949L269.894 119.739L269.801 118.408ZM264.78 118.759L264.687 117.429L261.674 117.639L261.767 118.97L261.86 120.301L264.873 120.09L264.78 118.759ZM259.759 119.11L259.666 117.78L256.653 117.991L256.746 119.321L256.839 120.652L259.852 120.441L259.759 119.11ZM254.738 119.462L254.645 118.131L251.632 118.342L251.725 119.672L251.818 121.003L254.831 120.792L254.738 119.462ZM249.717 119.813L249.624 118.482L246.611 118.693L246.704 120.023L246.797 121.354L249.81 121.143L249.717 119.813ZM244.696 120.164L244.603 118.833L241.59 119.044L241.683 120.374L241.776 121.705L244.789 121.494L244.696 120.164ZM239.675 120.515L239.582 119.184L236.569 119.395L236.662 120.725L236.755 122.056L239.768 121.845L239.675 120.515ZM234.654 120.866L234.561 119.535L231.548 119.746L231.641 121.077L231.734 122.407L234.747 122.196L234.654 120.866ZM229.633 121.217L229.54 119.886L226.527 120.097L226.62 121.428L226.713 122.758L229.726 122.548L229.633 121.217ZM224.612 121.568L224.519 120.238L221.506 120.448L221.599 121.779L221.692 123.109L224.705 122.899L224.612 121.568ZM219.591 121.919L219.498 120.589L216.485 120.799L216.578 122.13L216.671 123.46L219.684 123.25L219.591 121.919ZM214.57 122.27L214.477 120.94L211.464 121.15L211.557 122.481L211.65 123.812L214.663 123.601L214.57 122.27ZM209.549 122.621L209.456 121.291L206.443 121.502L206.536 122.832L206.629 124.163L209.642 123.952L209.549 122.621ZM204.528 122.973L204.435 121.642L201.422 121.853L201.515 123.183L201.608 124.514L204.621 124.303L204.528 122.973ZM199.507 123.324L199.414 121.993L196.401 122.204L196.494 123.534L196.587 124.865L199.6 124.654L199.507 123.324ZM194.486 123.675L194.393 122.344L191.38 122.555L191.473 123.885L191.566 125.216L194.579 125.005L194.486 123.675ZM189.465 124.026L189.372 122.695L186.359 122.906L186.452 124.237L186.545 125.567L189.558 125.356L189.465 124.026ZM184.444 124.377L184.351 123.046L181.338 123.257L181.431 124.588L181.524 125.918L184.537 125.707L184.444 124.377ZM179.423 124.728L179.33 123.397L176.317 123.608L176.41 124.939L176.503 126.269L179.516 126.059L179.423 124.728ZM174.402 125.079L174.309 123.749L171.296 123.959L171.389 125.29L171.482 126.62L174.495 126.41L174.402 125.079ZM169.381 125.43L169.288 124.1L166.275 124.31L166.368 125.641L166.461 126.971L169.474 126.761L169.381 125.43ZM164.36 125.781L164.267 124.451L161.254 124.661L161.347 125.992L161.44 127.323L164.453 127.112L164.36 125.781ZM159.339 126.132L159.246 124.802L156.233 125.013L156.326 126.343L156.419 127.674L159.432 127.463L159.339 126.132ZM154.318 126.484L154.225 125.153L151.212 125.364L151.305 126.694L151.398 128.025L154.411 127.814L154.318 126.484ZM149.297 126.835L149.204 125.504L146.191 125.715L146.284 127.045L146.377 128.376L149.39 128.165L149.297 126.835ZM144.276 127.186L144.183 125.855L141.17 126.066L141.263 127.396L141.356 128.727L144.369 128.516L144.276 127.186ZM139.255 127.537L139.162 126.206L136.149 126.417L136.242 127.748L136.335 129.078L139.348 128.867L139.255 127.537ZM134.234 127.888L134.141 126.557L131.128 126.768L131.221 128.099L131.314 129.429L134.327 129.219L134.234 127.888ZM129.213 128.239L129.12 126.909L126.107 127.119L126.2 128.45L126.293 129.78L129.306 129.57L129.213 128.239ZM124.192 128.59L124.099 127.26L121.086 127.47L121.179 128.801L121.272 130.131L124.285 129.921L124.192 128.59ZM119.171 128.941L119.078 127.611L116.065 127.821L116.158 129.152L116.251 130.482L119.264 130.272L119.171 128.941ZM114.15 129.292L114.057 127.962L111.044 128.172L111.137 129.503L111.23 130.834L114.243 130.623L114.15 129.292ZM109.129 129.643L109.036 128.313L106.023 128.524L106.116 129.854L106.209 131.185L109.222 130.974L109.129 129.643ZM104.108 129.995L104.015 128.664L101.002 128.875L101.095 130.205L101.188 131.536L104.201 131.325L104.108 129.995ZM99.087 130.346L98.9939 129.015L95.9813 129.226L96.0744 130.556L96.1674 131.887L99.18 131.676L99.087 130.346ZM94.066 130.697L93.9729 129.366L90.9603 129.577L91.0534 130.907L91.1464 132.238L94.159 132.027L94.066 130.697ZM89.045 131.048L88.9519 129.717L85.9393 129.928L86.0324 131.259L86.1254 132.589L89.138 132.378L89.045 131.048ZM84.024 131.399L83.9309 130.068L80.9184 130.279L81.0114 131.61L81.1044 132.94L84.117 132.73L84.024 131.399ZM79.003 131.75L78.91 130.42L77.4038 130.525L77.4969 131.855L77.5899 133.186L79.096 133.081L79.003 131.75Z" fill="#DCD9D5" mask="url(#path-5-inside-1_1041_15)"/>
<mask id="mask0_1041_15" style="mask-type:alpha" maskUnits="userSpaceOnUse" x="52" y="124" width="19" height="20">
<g clip-path="url(#clip2_1041_15)">
<path d="M60.6661 125.349L69.3141 124.744L70.5236 142.04L61.8755 142.645L60.6661 125.349Z" fill="black"/>
</g>
</mask>
<g mask="url(#mask0_1041_15)">
<rect x="52.5517" y="126.417" width="16.3383" height="16.3376" rx="8.16" transform="rotate(-4 52.5517 126.417)" fill="#F6F5F4" stroke="#E6E6E6"/>
</g>
<mask id="mask1_1041_15" style="mask-type:alpha" maskUnits="userSpaceOnUse" x="350" y="103" width="20" height="20">
<g clip-path="url(#clip3_1041_15)">
<path d="M350.722 105.066L359.37 104.461L360.579 121.757L351.931 122.362L350.722 105.066Z" fill="black"/>
</g>
</mask>
<g mask="url(#mask1_1041_15)">
<rect x="351.255" y="105.53" width="16.3383" height="16.3383" rx="8.16" transform="rotate(-4 351.255 105.53)" fill="#F6F5F4" stroke="#E6E6E6"/>
</g>
</g>
<defs>
<filter id="filter0_ddddd_1041_15" x="0" y="-0.807592" width="421.245" height="251.615" filterUnits="userSpaceOnUse" color-interpolation-filters="sRGB">
<feFlood flood-opacity="0" result="BackgroundImageFix"/>
<feColorMatrix in="SourceAlpha" type="matrix" values="0 0 0 0 0 0 0 0 0 0 0 0 0 0 0 0 0 0 127 0" result="hardAlpha"/>
<feOffset dy="23"/>
<feGaussianBlur stdDeviation="26"/>
<feComposite in2="hardAlpha" operator="out"/>
<feColorMatrix type="matrix" values="0 0 0 0 0 0 0 0 0 0 0 0 0 0 0 0 0 0 0.05 0"/>
<feBlend mode="normal" in2="BackgroundImageFix" result="effect1_dropShadow_1041_15"/>
<feColorMatrix in="SourceAlpha" type="matrix" values="0 0 0 0 0 0 0 0 0 0 0 0 0 0 0 0 0 0 127 0" result="hardAlpha"/>
<feOffset dy="8"/>
<feGaussianBlur stdDeviation="12"/>
<feComposite in2="hardAlpha" operator="out"/>
<feColorMatrix type="matrix" values="0 0 0 0 0 0 0 0 0 0 0 0 0 0 0 0 0 0 0.035 0"/>
<feBlend mode="normal" in2="effect1_dropShadow_1041_15" result="effect2_dropShadow_1041_15"/>
<feColorMatrix in="SourceAlpha" type="matrix" values="0 0 0 0 0 0 0 0 0 0 0 0 0 0 0 0 0 0 127 0" result="hardAlpha"/>
<feOffset dy="3"/>
<feGaussianBlur stdDeviation="5"/>
<feComposite in2="hardAlpha" operator="out"/>
<feColorMatrix type="matrix" values="0 0 0 0 0 0 0 0 0 0 0 0 0 0 0 0 0 0 0.03 0"/>
<feBlend mode="normal" in2="effect2_dropShadow_1041_15" result="effect3_dropShadow_1041_15"/>
<feColorMatrix in="SourceAlpha" type="matrix" values="0 0 0 0 0 0 0 0 0 0 0 0 0 0 0 0 0 0 127 0" result="hardAlpha"/>
<feOffset dy="1"/>
<feGaussianBlur stdDeviation="2"/>
<feComposite in2="hardAlpha" operator="out"/>
<feColorMatrix type="matrix" values="0 0 0 0 0 0 0 0 0 0 0 0 0 0 0 0 0 0 0.024 0"/>
<feBlend mode="normal" in2="effect3_dropShadow_1041_15" result="effect4_dropShadow_1041_15"/>
<feColorMatrix in="SourceAlpha" type="matrix" values="0 0 0 0 0 0 0 0 0 0 0 0 0 0 0 0 0 0 127 0" result="hardAlpha"/>
<feOffset dy="0.3"/>
<feGaussianBlur stdDeviation="0.75"/>
<feComposite in2="hardAlpha" operator="out"/>
<feColorMatrix type="matrix" values="0 0 0 0 0 0 0 0 0 0 0 0 0 0 0 0 0 0 0.02 0"/>
<feBlend mode="normal" in2="effect4_dropShadow_1041_15" result="effect5_dropShadow_1041_15"/>
<feBlend mode="normal" in="SourceGraphic" in2="effect5_dropShadow_1041_15" result="shape"/>
</filter>
<clipPath id="clip0_1041_15">
<rect width="12" height="12" fill="white" transform="translate(76.9267 66.3226) scale(1.00035) rotate(-4)"/>
</clipPath>
<clipPath id="clip1_1041_15">
<rect width="12" height="12" fill="white" transform="translate(76.9267 66.3226) scale(1.00035) rotate(-4)"/>
</clipPath>
<clipPath id="clip2_1041_15">
<rect width="17.3323" height="17.3323" fill="white" transform="translate(52.0181 125.953) scale(1.00035) rotate(-4)"/>
</clipPath>
<clipPath id="clip3_1041_15">
<rect width="17.3323" height="17.3323" fill="white" transform="translate(350.722 105.066) scale(1.00035) rotate(-4)"/>
</clipPath>
</defs>
</svg>
